<?xml version="1.0" encoding="UTF-8"?>
<!DOCTYPE svg PUBLIC "-//W3C//DTD SVG 1.1//EN" "http://www.w3.org/Graphics/SVG/1.1/DTD/svg11.dtd">
<svg xmlns="http://www.w3.org/2000/svg" version="1.1" width="500px" height="500px" style="shape-rendering:geometricPrecision; text-rendering:geometricPrecision; image-rendering:optimizeQuality; fill-rule:evenodd; clip-rule:evenodd" xmlns:xlink="http://www.w3.org/1999/xlink">
<g><path style="opacity:1" fill="#4a3aff" d="M -0.5,-0.5 C 166.167,-0.5 332.833,-0.5 499.5,-0.5C 499.5,166.167 499.5,332.833 499.5,499.5C 332.833,499.5 166.167,499.5 -0.5,499.5C -0.5,332.833 -0.5,166.167 -0.5,-0.5 Z"/></g>
<g><path style="opacity:1" fill="#f7f7ff" d="M 250.5,126.5 C 259.065,125.361 267.065,126.861 274.5,131C 295,145.5 315.5,160 336,174.5C 341.408,183.299 339.908,190.799 331.5,197C 310.673,211.581 289.673,225.914 268.5,240C 261.824,241.941 255.157,241.941 248.5,240C 238.995,234.082 229.662,227.915 220.5,221.5C 216.147,234.595 211.647,247.595 207,260.5C 204.833,257.667 202.667,254.833 200.5,252C 196.121,252.462 191.788,253.129 187.5,254C 192.5,239 197.5,224 202.5,209C 194.69,203.518 187.19,197.685 180,191.5C 175.701,182.396 177.868,175.23 186.5,170C 207.758,155.216 229.092,140.716 250.5,126.5 Z"/></g>
<g><path style="opacity:1" fill="#4c3bff" d="M 253.5,140.5 C 258.449,139.959 263.116,140.792 267.5,143C 286.361,156.694 305.361,170.194 324.5,183.5C 305.664,197.495 286.664,211.328 267.5,225C 261.5,228.333 255.5,228.333 249.5,225C 244.167,221 238.833,217 233.5,213C 245.044,203.12 256.878,193.62 269,184.5C 270.373,182.305 270.706,179.971 270,177.5C 266.882,172.714 263.382,168.214 259.5,164C 257.167,163.333 254.833,163.333 252.5,164C 238.586,175.202 224.419,186.035 210,196.5C 203.731,192.728 197.897,188.394 192.5,183.5C 212.725,168.899 233.058,154.565 253.5,140.5 Z"/></g>
<g><path style="opacity:1" fill="#f1f0ff" d="M 75.5,313.5 C 81.7311,312.853 86.8978,314.853 91,319.5C 91.4935,321.134 91.6602,322.801 91.5,324.5C 89.1667,324.5 86.8333,324.5 84.5,324.5C 83.6153,320.216 80.9486,318.716 76.5,320C 73.7348,322.966 74.0682,325.633 77.5,328C 82.9773,329.322 87.8106,331.822 92,335.5C 92.9247,348.982 86.758,353.816 73.5,350C 68.9354,347.944 66.6021,344.444 66.5,339.5C 68.924,339.192 71.2573,339.526 73.5,340.5C 76.2472,345.707 80.0806,346.707 85,343.5C 85.8959,340.975 85.3959,338.808 83.5,337C 79.4189,335.529 75.4189,333.862 71.5,332C 65.3031,324.214 66.6365,318.047 75.5,313.5 Z"/></g>
<g><path style="opacity:1" fill="#f0efff" d="M 266.5,313.5 C 273.854,312.783 280.02,315.117 285,320.5C 286.128,322.345 286.628,324.345 286.5,326.5C 284.076,326.808 281.743,326.474 279.5,325.5C 276.473,320.745 272.139,319.245 266.5,321C 262.34,323.611 260.34,327.444 260.5,332.5C 261.334,344.2 267.001,347.7 277.5,343C 278.167,342 278.833,341 279.5,340C 281.81,339.503 284.143,339.337 286.5,339.5C 285.092,345.409 281.426,349.243 275.5,351C 258.895,351.385 251.729,343.218 254,326.5C 256.379,320.29 260.546,315.957 266.5,313.5 Z"/></g>
<g><path style="opacity:1" fill="#f1efff" d="M 341.5,313.5 C 358.157,313.658 365.324,321.991 363,338.5C 356.715,351.116 347.215,354.283 334.5,348C 326.602,339.745 325.435,330.579 331,320.5C 333.998,317.262 337.498,314.929 341.5,313.5 Z"/></g>
<g><path style="opacity:1" fill="#efedff" d="M 395.5,313.5 C 405.208,312.507 411.874,316.507 415.5,325.5C 412.833,326.833 410.167,326.833 407.5,325.5C 406.968,323.259 405.635,321.759 403.5,321C 394.271,318.606 389.271,322.106 388.5,331.5C 388.405,342.57 393.739,346.736 404.5,344C 406.805,340.358 410.138,338.858 414.5,339.5C 413.659,345.941 409.992,349.774 403.5,351C 385.577,351.046 378.744,342.212 383,324.5C 385.505,318.822 389.671,315.155 395.5,313.5 Z"/></g>
<g><path style="opacity:1" fill="#f2f1ff" d="M 98.5,314.5 C 101.448,314.223 104.281,314.556 107,315.5C 110.412,322.658 114.078,329.658 118,336.5C 121.484,329.531 124.984,322.531 128.5,315.5C 131.428,314.516 134.428,314.183 137.5,314.5C 137.5,326.5 137.5,338.5 137.5,350.5C 135.167,350.5 132.833,350.5 130.5,350.5C 130.666,342.493 130.5,334.493 130,326.5C 127,332.5 124,338.5 121,344.5C 119,345.833 117,345.833 115,344.5C 112,338.833 109,333.167 106,327.5C 105.5,335.159 105.334,342.826 105.5,350.5C 103.167,350.5 100.833,350.5 98.5,350.5C 98.5,338.5 98.5,326.5 98.5,314.5 Z"/></g>
<g><path style="opacity:1" fill="#f3f1ff" d="M 154.5,314.5 C 157.247,314.187 159.914,314.52 162.5,315.5C 166.833,326.833 171.167,338.167 175.5,349.5C 173.235,350.647 170.902,350.814 168.5,350C 167.5,347.667 166.5,345.333 165.5,343C 160.833,342.333 156.167,342.333 151.5,343C 150.5,345.333 149.5,347.667 148.5,350C 146.167,350.667 143.833,350.667 141.5,350C 145.934,338.198 150.267,326.365 154.5,314.5 Z"/></g>
<g><path style="opacity:1" fill="#f1f0ff" d="M 179.5,314.5 C 185.842,314.334 192.175,314.5 198.5,315C 205.049,317.779 207.216,322.612 205,329.5C 203.518,331.98 201.685,334.147 199.5,336C 201.57,340.806 203.903,345.473 206.5,350C 203.833,350.667 201.167,350.667 198.5,350C 196.644,345.788 194.644,341.621 192.5,337.5C 190.604,336.534 188.604,336.201 186.5,336.5C 186.5,341.167 186.5,345.833 186.5,350.5C 184.167,350.5 181.833,350.5 179.5,350.5C 179.5,338.5 179.5,326.5 179.5,314.5 Z"/></g>
<g><path style="opacity:1" fill="#f9f9ff" d="M 210.5,314.5 C 219.5,314.5 228.5,314.5 237.5,314.5C 237.5,316.167 237.5,317.833 237.5,319.5C 233.833,319.5 230.167,319.5 226.5,319.5C 226.5,329.833 226.5,340.167 226.5,350.5C 224.5,350.5 222.5,350.5 220.5,350.5C 220.5,340.5 220.5,330.5 220.5,320.5C 217.375,319.521 214.042,319.187 210.5,319.5C 210.5,317.833 210.5,316.167 210.5,314.5 Z"/></g>
<g><path style="opacity:1" fill="#f8f7ff" d="M 315.5,350.5 C 315.5,345.167 315.5,339.833 315.5,334.5C 309.833,334.5 304.167,334.5 298.5,334.5C 298.5,339.833 298.5,345.167 298.5,350.5C 296.5,350.5 294.5,350.5 292.5,350.5C 292.5,338.5 292.5,326.5 292.5,314.5C 294.833,314.5 297.167,314.5 299.5,314.5C 299.5,319.5 299.5,324.5 299.5,329.5C 304.833,329.5 310.167,329.5 315.5,329.5C 315.5,324.5 315.5,319.5 315.5,314.5C 317.5,314.5 319.5,314.5 321.5,314.5C 321.5,326.5 321.5,338.5 321.5,350.5C 319.5,350.5 317.5,350.5 315.5,350.5 Z"/></g>
<g><path style="opacity:1" fill="#f1f0ff" d="M 369.5,314.5 C 371.833,314.5 374.167,314.5 376.5,314.5C 376.5,326.5 376.5,338.5 376.5,350.5C 374.167,350.5 371.833,350.5 369.5,350.5C 369.5,338.5 369.5,326.5 369.5,314.5 Z"/></g>
<g><path style="opacity:1" fill="#f4f3ff" d="M 420.5,314.5 C 428.5,314.5 436.5,314.5 444.5,314.5C 444.5,316.167 444.5,317.833 444.5,319.5C 438.833,319.5 433.167,319.5 427.5,319.5C 427.5,322.833 427.5,326.167 427.5,329.5C 432.5,329.5 437.5,329.5 442.5,329.5C 442.5,331.167 442.5,332.833 442.5,334.5C 437.5,334.5 432.5,334.5 427.5,334.5C 427.5,338.167 427.5,341.833 427.5,345.5C 433.167,345.5 438.833,345.5 444.5,345.5C 444.5,347.167 444.5,348.833 444.5,350.5C 436.5,350.5 428.5,350.5 420.5,350.5C 420.5,338.5 420.5,326.5 420.5,314.5 Z"/></g>
<g><path style="opacity:1" fill="#9d92ff" d="M 210.5,314.5 C 210.5,316.167 210.5,317.833 210.5,319.5C 214.042,319.187 217.375,319.521 220.5,320.5C 216.833,320.5 213.167,320.5 209.5,320.5C 209.205,318.265 209.539,316.265 210.5,314.5 Z"/></g>
<g><path style="opacity:1" fill="#4d3dff" d="M 186.5,320.5 C 189.85,320.335 193.183,320.502 196.5,321C 198.478,323.497 198.978,326.331 198,329.5C 194.417,331.29 190.584,331.957 186.5,331.5C 186.5,327.833 186.5,324.167 186.5,320.5 Z"/></g>
<g><path style="opacity:1" fill="#9f97ff" d="M 237.5,319.5 C 234.375,320.479 231.042,320.813 227.5,320.5C 227.827,330.681 227.494,340.681 226.5,350.5C 226.5,340.167 226.5,329.833 226.5,319.5C 230.167,319.5 233.833,319.5 237.5,319.5 Z"/></g>
<g><path style="opacity:1" fill="#4d3dff" d="M 340.5,320.5 C 353.439,319.033 358.605,324.7 356,337.5C 352.903,344.132 347.736,346.299 340.5,344C 338.333,343.167 336.833,341.667 336,339.5C 332.92,331.89 334.42,325.557 340.5,320.5 Z"/></g>
<g><path style="opacity:1" fill="#5644ff" d="M 162.5,334.5 C 161.666,335.748 160.333,336.415 158.5,336.5C 156.667,336.415 155.334,335.748 154.5,334.5C 155.038,330.553 156.371,326.887 158.5,323.5C 160.235,327.039 161.568,330.706 162.5,334.5 Z"/></g>
<g><path style="opacity:1" fill="#9a90ff" d="M 315.5,350.5 C 314.513,345.695 314.179,340.695 314.5,335.5C 309.5,335.5 304.5,335.5 299.5,335.5C 299.821,340.695 299.487,345.695 298.5,350.5C 298.5,345.167 298.5,339.833 298.5,334.5C 304.167,334.5 309.833,334.5 315.5,334.5C 315.5,339.833 315.5,345.167 315.5,350.5 Z"/></g>
<g><path style="opacity:1" fill="#9c93ff" d="M 154.5,334.5 C 155.334,335.748 156.667,336.415 158.5,336.5C 160.333,336.415 161.666,335.748 162.5,334.5C 163.404,335.209 163.737,336.209 163.5,337.5C 160.167,337.5 156.833,337.5 153.5,337.5C 153.263,336.209 153.596,335.209 154.5,334.5 Z"/></g>
</svg>